<mxfile host="app.diagrams.net" modified="2021-08-03T07:07:38.453Z" agent="5.0 (Macintosh; Intel Mac OS X 10_15_7) AppleWebKit/537.36 (KHTML, like Gecko) Chrome/92.0.4515.107 Safari/537.36" etag="IuNaexXqW1V58K9pTOAC" version="14.8.0" type="github">
  <diagram id="oAJekxbkrvtzEHgfYoNN" name="Page-1">
    <mxGraphModel dx="1554" dy="993" grid="1" gridSize="10" guides="1" tooltips="1" connect="1" arrows="1" fold="1" page="1" pageScale="1" pageWidth="827" pageHeight="1169" math="0" shadow="0">
      <root>
        <mxCell id="0" />
        <mxCell id="1" parent="0" />
        <mxCell id="ycGSSZjMi2ZG3ldClWU5-1" value="" style="rhombus;whiteSpace=wrap;html=1;strokeWidth=2;fillWeight=-1;hachureGap=8;fillStyle=cross-hatch;fillColor=#006600;sketch=1;" vertex="1" parent="1">
          <mxGeometry x="350" y="480" width="120" height="60" as="geometry" />
        </mxCell>
        <mxCell id="ycGSSZjMi2ZG3ldClWU5-2" value="" style="ellipse;whiteSpace=wrap;html=1;strokeWidth=2;fillWeight=2;hachureGap=8;fillColor=#990000;fillStyle=dots;sketch=1;" vertex="1" parent="1">
          <mxGeometry x="350" y="480" width="120" height="60" as="geometry" />
        </mxCell>
        <mxCell id="ycGSSZjMi2ZG3ldClWU5-3" value="" style="shape=ext;double=1;rounded=0;whiteSpace=wrap;html=1;" vertex="1" parent="1">
          <mxGeometry x="350" y="470" width="120" height="80" as="geometry" />
        </mxCell>
        <mxCell id="ycGSSZjMi2ZG3ldClWU5-4" value="" style="ellipse;whiteSpace=wrap;html=1;strokeWidth=2;fillWeight=2;hachureGap=8;fillColor=#990000;fillStyle=dots;sketch=1;" vertex="1" parent="1">
          <mxGeometry x="350" y="480" width="120" height="60" as="geometry" />
        </mxCell>
        <mxCell id="ycGSSZjMi2ZG3ldClWU5-5" value="Icon" style="icon;html=1;image=img/clipart/Gear_128x128.png" vertex="1" parent="1">
          <mxGeometry x="240" y="340" width="60" height="60" as="geometry" />
        </mxCell>
        <mxCell id="ycGSSZjMi2ZG3ldClWU5-6" value="" style="ellipse;html=1;shape=endState;fillColor=#000000;strokeColor=#ff0000;" vertex="1" parent="1">
          <mxGeometry x="170" y="540" width="60" height="30" as="geometry" />
        </mxCell>
      </root>
    </mxGraphModel>
  </diagram>
</mxfile>
